# xmcd CD database file
#
# Track frame offsets:
#	150
#	22082
#	38062
#	53440
#	74162
#	86680
#	104450
#	118840
#	138550
#	157320
#	169887
#	188487
#	206000
#	224737
#	238675
#	257825
#	278545
#	300362
#	323175
#
# Disc length: 4542 seconds
#
# Revision: 1
# Processed by: cddbd v1.4PL0 Copyright (c) Steve Scherf et al.
# Submitted via: CDex 1.40Beta8
#
DISCID=2011bc13
DTITLE=Kato Tokiko - Kato Tokiko Zenkyokusyu
DYEAR=1994
DGENRE=Blues
TTITLE0=100MAN BON NO BARA
TTITLE1=KONO SORA WO TOBETANARA
TTITLE2=SHIRETOKO RYOJYO
TTITLE3=BIWAKO SYUYUUKOU NO UTA
TTITLE4=AKAI HUUSEN
TTITLE5=KAERITAI KAERENAI
TTITLE6=HITORINE NO KOMORIUTA
TTITLE7=KURO NO HUNAUTA
TTITLE8=NANPASEN
TTITLE9=SAKURANBO NO MINORU KORO
TTITLE10=AI NO KURASHI
TTITLE11=HAIIRO NO HITOMI
TTITLE12=HUSENKA
TTITLE13=HIGURENI UTAU UTA
TTITLE14=HAIIRO NO KISETU
TTITLE15=ANATA NO KEHAI
TTITLE16=IKU JIDAI KAGA ARIMASHITE
TTITLE17=JIDAI OKURE NO SAKABA
TTITLE18=ANATA NO IKU ASA
EXTD=YEAR: 1994 ID3G: 0
EXTT0=
EXTT1=
EXTT2=
EXTT3=
EXTT4=
EXTT5=
EXTT6=
EXTT7=
EXTT8=
EXTT9=
EXTT10=
EXTT11=
EXTT12=
EXTT13=
EXTT14=
EXTT15=
EXTT16=
EXTT17=
EXTT18=
PLAYORDER=
